<svg id="Layer_1" data-name="Layer 1" xmlns="http://www.w3.org/2000/svg" xmlns:xlink="http://www.w3.org/1999/xlink" viewBox="0 0 600 600"><defs><style>.cls-1{fill:url(#linear-gradient);}</style><linearGradient id="linear-gradient" x1="12.03" y1="300" x2="585.46" y2="300" gradientTransform="translate(229.2 -117.63) rotate(35.43)" gradientUnits="userSpaceOnUse"><stop offset="0" stop-color="#2db670"/><stop offset="0.05" stop-color="#25b889"/><stop offset="0.14" stop-color="#1abaab"/><stop offset="0.23" stop-color="#12bcc6"/><stop offset="0.32" stop-color="#0cbed9"/><stop offset="0.41" stop-color="#08bfe4"/><stop offset="0.51" stop-color="#07bfe8"/><stop offset="1" stop-color="#b42b91"/></linearGradient></defs><path class="cls-1" d="M299.32,586A287.83,287.83,0,0,1,16.54,347,285.46,285.46,0,0,1,464.21,67.39a286.08,286.08,0,0,1,68.17,398.8L530.75,465l1.63,1.15A282.93,282.93,0,0,1,346.94,582,290.5,290.5,0,0,1,299.32,586Zm-1.16-567.9a285.65,285.65,0,0,0-47,3.9A281.45,281.45,0,0,0,135.6,529.35,281.46,281.46,0,1,0,298.16,18.05Z"/></svg>